<svg width="1264" height="152" viewBox="0 0 1264 152" fill="none" xmlns="http://www.w3.org/2000/svg">
<path d="M381.453 65.5781C381.453 68.7969 380.984 71.7656 380.047 74.4844C379.109 77.1719 377.594 79.5 375.5 81.4688C373.438 83.4062 370.75 84.9219 367.438 86.0156C364.125 87.1094 360.094 87.6562 355.344 87.6562H326.469V108H309.078V43.5938H355.344C360.094 43.5938 364.125 44.1406 367.438 45.2344C370.75 46.2969 373.438 47.8125 375.5 49.7812C377.594 51.7188 379.109 54.0312 380.047 56.7188C380.984 59.4062 381.453 62.3594 381.453 65.5781ZM363.875 65.8594C363.875 64.3594 363.656 63.0781 363.219 62.0156C362.812 60.9219 362.125 60.0312 361.156 59.3438C360.188 58.6562 358.922 58.1562 357.359 57.8438C355.797 57.5 353.875 57.3281 351.594 57.3281H326.469V73.9219H351.594C353.875 73.9219 355.797 73.7969 357.359 73.5469C358.922 73.2656 360.188 72.8125 361.156 72.1875C362.125 71.5312 362.812 70.6875 363.219 69.6562C363.656 68.625 363.875 67.3594 363.875 65.8594ZM413.281 108H395.891V43.5938H439.484C444.172 43.5938 448.141 44.0781 451.391 45.0469C454.672 46.0156 457.328 47.3906 459.359 49.1719C461.422 50.9531 462.906 53.1094 463.812 55.6406C464.75 58.1406 465.219 60.9375 465.219 64.0312C465.219 66.75 464.828 69.125 464.047 71.1562C463.297 73.1875 462.266 74.9375 460.953 76.4062C459.672 77.8438 458.172 79.0625 456.453 80.0625C454.734 81.0625 452.922 81.8906 451.016 82.5469L472.109 108H451.766L432.266 84.2812H413.281V108ZM447.641 63.9375C447.641 62.6875 447.469 61.625 447.125 60.75C446.812 59.875 446.25 59.1719 445.438 58.6406C444.625 58.0781 443.531 57.6719 442.156 57.4219C440.812 57.1719 439.125 57.0469 437.094 57.0469H413.281V70.8281H437.094C439.125 70.8281 440.812 70.7031 442.156 70.4531C443.531 70.2031 444.625 69.8125 445.438 69.2812C446.25 68.7188 446.812 68 447.125 67.125C447.469 66.25 447.641 65.1875 447.641 63.9375ZM567.453 75.8438C567.453 81.375 566.438 86.2656 564.406 90.5156C562.375 94.7344 559.469 98.2656 555.688 101.109C551.906 103.953 547.312 106.109 541.906 107.578C536.531 109.016 530.484 109.734 523.766 109.734C517.047 109.734 510.969 109.016 505.531 107.578C500.125 106.109 495.516 103.953 491.703 101.109C487.891 98.2656 484.953 94.7344 482.891 90.5156C480.828 86.2656 479.797 81.375 479.797 75.8438C479.797 70.3125 480.828 65.4375 482.891 61.2188C484.953 56.9688 487.891 53.4219 491.703 50.5781C495.516 47.7344 500.125 45.5938 505.531 44.1562C510.969 42.6875 517.047 41.9531 523.766 41.9531C530.484 41.9531 536.531 42.6875 541.906 44.1562C547.312 45.5938 551.906 47.7344 555.688 50.5781C559.469 53.4219 562.375 56.9688 564.406 61.2188C566.438 65.4375 567.453 70.3125 567.453 75.8438ZM549.875 75.8438C549.875 73.4375 549.484 71.0469 548.703 68.6719C547.953 66.2656 546.594 64.1094 544.625 62.2031C542.688 60.2969 540.031 58.75 536.656 57.5625C533.281 56.375 528.984 55.7812 523.766 55.7812C520.266 55.7812 517.188 56.0625 514.531 56.625C511.875 57.1562 509.578 57.9062 507.641 58.875C505.703 59.8438 504.078 60.9844 502.766 62.2969C501.453 63.5781 500.406 64.9688 499.625 66.4688C498.844 67.9375 498.281 69.4844 497.938 71.1094C497.625 72.7031 497.469 74.2812 497.469 75.8438C497.469 77.4375 497.625 79.0469 497.938 80.6719C498.281 82.2969 498.844 83.8594 499.625 85.3594C500.406 86.8281 501.453 88.2031 502.766 89.4844C504.078 90.7656 505.703 91.8906 507.641 92.8594C509.578 93.7969 511.875 94.5469 514.531 95.1094C517.188 95.6406 520.266 95.9062 523.766 95.9062C528.984 95.9062 533.281 95.3125 536.656 94.125C540.031 92.9375 542.688 91.3906 544.625 89.4844C546.594 87.5781 547.953 85.4375 548.703 83.0625C549.484 80.6562 549.875 78.25 549.875 75.8438ZM655.484 57.6094V108H638.094V57.6094H610.766V43.5938H682.859V57.6094H655.484ZM770.422 86.2969C770.422 89.5156 769.625 92.5469 768.031 95.3906C766.438 98.2344 764.047 100.719 760.859 102.844C757.672 104.969 753.688 106.656 748.906 107.906C744.156 109.125 738.594 109.734 732.219 109.734C725.844 109.734 720.25 109.125 715.438 107.906C710.656 106.656 706.672 104.969 703.484 102.844C700.297 100.719 697.906 98.2344 696.312 95.3906C694.719 92.5469 693.922 89.5156 693.922 86.2969V43.5938H711.266V80.0625C711.266 82.2188 711.531 84.2656 712.062 86.2031C712.625 88.1094 713.656 89.7812 715.156 91.2188C716.688 92.6562 718.812 93.7969 721.531 94.6406C724.281 95.4844 727.844 95.9062 732.219 95.9062C736.562 95.9062 740.094 95.4844 742.812 94.6406C745.531 93.7969 747.641 92.6562 749.141 91.2188C750.672 89.7812 751.703 88.1094 752.234 86.2031C752.766 84.2656 753.031 82.2188 753.031 80.0625V43.5938H770.422V86.2969ZM863.562 90.2344C863.562 92.7344 863.234 94.9062 862.578 96.75C861.922 98.5938 861 100.188 859.812 101.531C858.656 102.844 857.25 103.922 855.594 104.766C853.969 105.578 852.156 106.234 850.156 106.734C848.188 107.203 846.078 107.531 843.828 107.719C841.578 107.906 839.25 108 836.844 108H790.109V43.5938H836C837.844 43.5938 839.688 43.6719 841.531 43.8281C843.406 43.9844 845.188 44.2812 846.875 44.7188C848.562 45.125 850.125 45.7031 851.562 46.4531C853.031 47.2031 854.297 48.1875 855.359 49.4062C856.453 50.625 857.297 52.0938 857.891 53.8125C858.516 55.5312 858.828 57.5625 858.828 59.9062C858.828 64.0938 857.797 67.4219 855.734 69.8906C853.672 72.3281 850.422 73.9531 845.984 74.7656C849.109 74.9844 851.781 75.4688 854 76.2188C856.25 76.9375 858.078 77.9375 859.484 79.2188C860.891 80.4688 861.922 82.0156 862.578 83.8594C863.234 85.6719 863.562 87.7969 863.562 90.2344ZM841.859 62.6719C841.859 61.8594 841.734 61.0938 841.484 60.375C841.234 59.625 840.781 58.9688 840.125 58.4062C839.469 57.8438 838.578 57.3906 837.453 57.0469C836.328 56.7031 834.891 56.5312 833.141 56.5312H807.5V68.625H833.141C834.891 68.625 836.328 68.4688 837.453 68.1562C838.578 67.8438 839.469 67.4219 840.125 66.8906C840.781 66.3594 841.234 65.7344 841.484 65.0156C841.734 64.2656 841.859 63.4844 841.859 62.6719ZM845.891 88.2188C845.891 86.75 845.641 85.5781 845.141 84.7031C844.641 83.7969 843.859 83.1094 842.797 82.6406C841.734 82.1406 840.359 81.8125 838.672 81.6562C836.984 81.5 834.969 81.4219 832.625 81.4219H807.5V95.0625H832.625C834.969 95.0625 836.984 94.9844 838.672 94.8281C840.359 94.6719 841.734 94.3438 842.797 93.8438C843.859 93.3438 844.641 92.6562 845.141 91.7812C845.641 90.875 845.891 89.6875 845.891 88.2188ZM938.797 61.7344C937.578 61.1406 935.969 60.4688 933.969 59.7188C931.969 58.9688 929.703 58.2656 927.172 57.6094C924.641 56.9219 921.891 56.3594 918.922 55.9219C915.953 55.4531 912.906 55.2188 909.781 55.2188C907.281 55.2188 905.141 55.2969 903.359 55.4531C901.609 55.6094 900.125 55.8125 898.906 56.0625C897.719 56.3125 896.766 56.6094 896.047 56.9531C895.359 57.2656 894.828 57.5938 894.453 57.9375C894.078 58.2812 893.828 58.625 893.703 58.9688C893.609 59.3125 893.562 59.625 893.562 59.9062C893.562 60.8438 894.031 61.6719 894.969 62.3906C895.906 63.0781 897.188 63.7031 898.812 64.2656C900.438 64.7969 902.328 65.3125 904.484 65.8125C906.641 66.2812 908.922 66.7812 911.328 67.3125C913.766 67.8125 916.266 68.375 918.828 69C921.422 69.5938 923.922 70.2969 926.328 71.1094C928.766 71.9219 931.062 72.875 933.219 73.9688C935.375 75.0312 937.266 76.2812 938.891 77.7188C940.516 79.1562 941.797 80.8125 942.734 82.6875C943.672 84.5625 944.141 86.7031 944.141 89.1094C944.141 92.2031 943.594 94.8594 942.5 97.0781C941.406 99.2969 939.938 101.172 938.094 102.703C936.281 104.234 934.172 105.469 931.766 106.406C929.359 107.312 926.828 108.016 924.172 108.516C921.547 109.016 918.875 109.344 916.156 109.5C913.469 109.656 910.906 109.734 908.469 109.734C902.094 109.734 896.188 109.203 890.75 108.141C885.344 107.109 880.562 105.812 876.406 104.25V88.875C880.688 91.25 885.562 93.1094 891.031 94.4531C896.531 95.7969 902.406 96.4688 908.656 96.4688C912.344 96.4688 915.344 96.2812 917.656 95.9062C920 95.5 921.828 95 923.141 94.4062C924.453 93.7812 925.344 93.1094 925.812 92.3906C926.281 91.6719 926.516 90.9844 926.516 90.3281C926.516 89.2969 926.047 88.4062 925.109 87.6562C924.172 86.875 922.891 86.2031 921.266 85.6406C919.641 85.0469 917.75 84.5156 915.594 84.0469C913.438 83.5469 911.141 83.0625 908.703 82.5938C906.297 82.0938 903.812 81.5625 901.25 81C898.688 80.4375 896.188 79.7812 893.75 79.0312C891.344 78.25 889.062 77.3594 886.906 76.3594C884.75 75.3281 882.859 74.125 881.234 72.75C879.609 71.3438 878.328 69.7344 877.391 67.9219C876.453 66.0781 875.984 63.9531 875.984 61.5469C875.984 58.7031 876.484 56.25 877.484 54.1875C878.484 52.125 879.828 50.375 881.516 48.9375C883.234 47.4688 885.203 46.2812 887.422 45.375C889.672 44.4688 892.031 43.7656 894.5 43.2656C896.969 42.7656 899.469 42.4219 902 42.2344C904.531 42.0469 906.938 41.9531 909.219 41.9531C911.719 41.9531 914.281 42.0781 916.906 42.3281C919.562 42.5781 922.172 42.9375 924.734 43.4062C927.297 43.8438 929.766 44.3594 932.141 44.9531C934.547 45.5469 936.766 46.1719 938.797 46.8281V61.7344ZM996.734 108V43.5938H1014.12V93.8906H1061.14V108H996.734ZM1075.11 108V43.5938H1092.5V93.8906H1139.52V108H1075.11ZM1224.45 103.594C1222.2 104.531 1219.94 105.375 1217.66 106.125C1215.38 106.875 1213.02 107.516 1210.58 108.047C1208.14 108.609 1205.56 109.031 1202.84 109.312C1200.16 109.594 1197.27 109.734 1194.17 109.734C1187.61 109.734 1181.56 109.031 1176.03 107.625C1170.53 106.219 1165.78 104.109 1161.78 101.297C1157.81 98.4531 1154.72 94.9219 1152.5 90.7031C1150.28 86.4531 1149.17 81.5 1149.17 75.8438C1149.17 70.1875 1150.28 65.25 1152.5 61.0312C1154.72 56.7812 1157.81 53.25 1161.78 50.4375C1165.78 47.5938 1170.53 45.4688 1176.03 44.0625C1181.56 42.6562 1187.61 41.9531 1194.17 41.9531C1197.27 41.9531 1200.16 42.0938 1202.84 42.375C1205.56 42.6562 1208.14 43.0781 1210.58 43.6406C1213.02 44.1719 1215.38 44.8125 1217.66 45.5625C1219.94 46.3125 1222.2 47.1562 1224.45 48.0938V63.75C1222.67 62.7812 1220.8 61.8281 1218.83 60.8906C1216.86 59.9219 1214.69 59.0625 1212.31 58.3125C1209.94 57.5312 1207.33 56.9062 1204.48 56.4375C1201.64 55.9375 1198.44 55.6875 1194.88 55.6875C1189.41 55.6875 1184.86 56.25 1181.23 57.375C1177.64 58.5 1174.77 60 1172.61 61.875C1170.45 63.75 1168.94 65.9062 1168.06 68.3438C1167.19 70.75 1166.75 73.25 1166.75 75.8438C1166.75 77.5625 1166.94 79.2656 1167.31 80.9531C1167.69 82.6094 1168.31 84.1875 1169.19 85.6875C1170.06 87.1562 1171.2 88.5156 1172.61 89.7656C1174.02 91.0156 1175.77 92.0938 1177.86 93C1179.95 93.9062 1182.39 94.625 1185.17 95.1562C1187.98 95.6562 1191.22 95.9062 1194.88 95.9062C1198.44 95.9062 1201.64 95.6875 1204.48 95.25C1207.33 94.7812 1209.94 94.1719 1212.31 93.4219C1214.69 92.6719 1216.86 91.8281 1218.83 90.8906C1220.8 89.9219 1222.67 88.9375 1224.45 87.9375V103.594Z" fill="white"/>
<g clip-path="url(#clip0_147_7)">
<path d="M172.074 114.343L72.5874 114.252C72.1176 114.247 71.8399 114.487 71.5143 114.781C71.1032 115.15 66.4372 123.531 66.1756 124.403C64.3337 130.459 67.1793 137.701 58.1195 138.786C51.2219 139.609 43.278 137.562 44.6019 128.989C45.5362 122.933 51.9053 124.969 53.4855 120.8C54.313 118.619 54.7134 111.799 53.6457 109.843C53.3841 109.367 50.8215 108.212 49.9513 107.528C41.8045 101.071 38.7988 94.4807 35.0884 84.9932C29.8138 71.5022 26.333 57.2521 22.5692 43.28C12.8955 40.4471 2.18607 32.4936 11.7103 22.3005C24.1174 9.0233 67.4836 13.1818 84.2577 15.4481C109.633 18.8797 134.345 24.1446 160.12 25.0158C177.21 25.5931 199.611 23.0221 215.835 26.9615C232.871 31.0932 225.963 45.7548 213.534 50.1218C208.131 70.2033 207.544 96.6134 189.323 109.8C189.232 113.413 188.693 117.94 190.615 121.163C192.825 124.862 199.547 123.088 199.397 130.533C199.248 138.017 191.971 139.641 185.81 138.797C177.252 137.621 179.66 130.464 177.589 124.579C176.345 121.046 173.451 117.839 172.063 114.343H172.074ZM213.657 33.6856C210.08 30.0295 188.293 30.8046 182.543 30.8527C170.008 30.9596 157.259 31.927 144.638 31.43C110.62 30.0937 76.9064 19.2485 42.696 22.8618C40.2135 23.1237 26.5145 25.1922 25.9326 27.4639C26.5572 30.4037 31.4955 31.601 34.1381 32.4883C54.0141 39.1643 82.1276 43.7878 103.109 46.8185C135.605 51.5168 178.763 51.4848 209.519 38.6138C211.217 37.9029 216.065 36.1443 213.657 33.6802V33.6856Z" fill="white"/>
</g>
<defs>
<clipPath id="clip0_147_7">
<rect width="218" height="126" fill="white" transform="translate(8 13)"/>
</clipPath>
</defs>
</svg>
